<?xml version="1.0" encoding="UTF-8" standalone="no"?>
<svg
   width="240"
   height="240"
   viewBox="0 0 24 24"
   xml:space="preserve"
   version="1.1"
   id="svg380"
   sodipodi:docname="tos-lit-symbolic.svg"
   inkscape:version="1.2.1 (9c6d41e410, 2022-07-14)"
   xmlns:inkscape="http://www.inkscape.org/namespaces/inkscape"
   xmlns:sodipodi="http://sodipodi.sourceforge.net/DTD/sodipodi-0.dtd"
   xmlns="http://www.w3.org/2000/svg"
   xmlns:svg="http://www.w3.org/2000/svg"><defs
     id="defs384" /><sodipodi:namedview
     id="namedview382"
     pagecolor="#505050"
     bordercolor="#eeeeee"
     borderopacity="1"
     inkscape:showpageshadow="0"
     inkscape:pageopacity="0"
     inkscape:pagecheckerboard="0"
     inkscape:deskcolor="#505050"
     showgrid="false"
     inkscape:zoom="3.2583333"
     inkscape:cx="120.30691"
     inkscape:cy="120"
     inkscape:window-width="1920"
     inkscape:window-height="1011"
     inkscape:window-x="0"
     inkscape:window-y="0"
     inkscape:window-maximized="1"
     inkscape:current-layer="svg380" /><path
     fill="#ffffff"
     d="M5.12 5h13.75l-.94-1h-12l-.81 1zm15.42.23c.29.34.46.79.46 1.27V19c0 1.1-.9 2-2 2H5c-1.1 0-2-.9-2-2V6.5c0-.48.17-.93.46-1.27l1.38-1.68C5.12 3.21 5.53 3 6 3h12c.47 0 .88.21 1.15.55l1.39 1.68zM6 18h6v-3H6v3z"
     id="path378"
     style="fill:#cccccc" /></svg>
