<?xml version="1.0" encoding="UTF-8" standalone="no"?>
<svg
   width="240"
   height="240"
   viewBox="0 0 24 24"
   xml:space="preserve"
   version="1.1"
   id="svg380"
   sodipodi:docname="tos-unknown-symbolic.svg"
   inkscape:version="1.2.1 (9c6d41e410, 2022-07-14)"
   xmlns:inkscape="http://www.inkscape.org/namespaces/inkscape"
   xmlns:sodipodi="http://sodipodi.sourceforge.net/DTD/sodipodi-0.dtd"
   xmlns="http://www.w3.org/2000/svg"
   xmlns:svg="http://www.w3.org/2000/svg"><defs
     id="defs384"><clipPath
       clipPathUnits="userSpaceOnUse"
       id="clipPath425-6"><g
         inkscape:label="Clip"
         id="use427-7"
         style="fill:#00ffff" /></clipPath><clipPath
       clipPathUnits="userSpaceOnUse"
       id="clipPath425-6-6"><g
         inkscape:label="Clip"
         id="use427-7-2"
         style="fill:#00ffff" /></clipPath><filter
       id="mask-powermask-path-effect965_inverse"
       inkscape:label="filtermask-powermask-path-effect965"
       style="color-interpolation-filters:sRGB"
       height="100"
       width="100"
       x="-50"
       y="-50"><feColorMatrix
         id="mask-powermask-path-effect965_primitive1"
         values="1"
         type="saturate"
         result="fbSourceGraphic" /><feColorMatrix
         id="mask-powermask-path-effect965_primitive2"
         values="-1 0 0 0 1 0 -1 0 0 1 0 0 -1 0 1 0 0 0 1 0 "
         in="fbSourceGraphic" /></filter></defs><sodipodi:namedview
     id="namedview382"
     pagecolor="#505050"
     bordercolor="#eeeeee"
     borderopacity="1"
     inkscape:showpageshadow="0"
     inkscape:pageopacity="0"
     inkscape:pagecheckerboard="0"
     inkscape:deskcolor="#505050"
     showgrid="false"
     inkscape:zoom="2.751018"
     inkscape:cx="12.17731"
     inkscape:cy="111.23155"
     inkscape:window-width="1920"
     inkscape:window-height="1011"
     inkscape:window-x="0"
     inkscape:window-y="0"
     inkscape:window-maximized="1"
     inkscape:current-layer="svg380" /><path
     id="path1203"
     clip-path="none"
     style="fill:#f2f2f2"
     d="M 6 3 C 5.5300015 3 5.1200382 3.2100009 4.8400391 3.55 L 3.4599609 5.2300781 C 3.1699618 5.5700772 3 6.0200015 3 6.5 L 3 19 C 3 20.099997 3.9000033 21 5 21 L 19 21 C 20.099997 21 21 20.099997 21 19 L 21 6.5 C 21 6.0200015 20.830039 5.5700772 20.540039 5.2300781 L 19.15 3.55 C 18.88 3.2100009 18.47 3 18 3 L 6 3 z M 5.9300781 4 L 17.930078 4 L 18.869922 5 L 5.1199219 5 L 5.9300781 4 z M 7.5117188 11.114258 A 1.8752997 1.8382553 0 0 1 7.5757813 11.115234 A 1.8752997 1.8382553 0 0 1 7.6398438 11.118359 A 1.8752997 1.8382553 0 0 1 7.7035156 11.123828 A 1.8752997 1.8382553 0 0 1 7.7671875 11.13125 A 1.8752997 1.8382553 0 0 1 7.8304688 11.14082 A 1.8752997 1.8382553 0 0 1 7.8933594 11.152539 A 1.8752997 1.8382553 0 0 1 7.9558594 11.166406 A 1.8752997 1.8382553 0 0 1 8.0177734 11.182422 A 1.8752997 1.8382553 0 0 1 8.0791016 11.200391 A 1.8752997 1.8382553 0 0 1 8.1398438 11.220313 A 1.8752997 1.8382553 0 0 1 8.1998047 11.242383 A 1.8752997 1.8382553 0 0 1 8.2589844 11.266406 A 1.8752997 1.8382553 0 0 1 8.3171875 11.292383 A 1.8752997 1.8382553 0 0 1 8.3746094 11.320312 A 1.8752997 1.8382553 0 0 1 8.4308594 11.35 A 1.8752997 1.8382553 0 0 1 8.4861328 11.381836 A 1.8752997 1.8382553 0 0 1 8.5402344 11.415234 A 1.8752997 1.8382553 0 0 1 8.5931641 11.450586 A 1.8752997 1.8382553 0 0 1 8.6449219 11.487695 A 1.8752997 1.8382553 0 0 1 8.6953125 11.526563 A 1.8752997 1.8382553 0 0 1 8.7443359 11.566992 A 1.8752997 1.8382553 0 0 1 8.7917969 11.608984 A 1.8752997 1.8382553 0 0 1 8.8378906 11.652539 A 1.8752997 1.8382553 0 0 1 8.8824219 11.697656 A 1.8752997 1.8382553 0 0 1 8.9251953 11.744336 A 1.8752997 1.8382553 0 0 1 8.9664063 11.792383 A 1.8752997 1.8382553 0 0 1 9.0060547 11.841602 A 1.8752997 1.8382553 0 0 1 9.0439453 11.892383 A 1.8752997 1.8382553 0 0 1 9.0798828 11.944141 A 1.8752997 1.8382553 0 0 1 9.1140625 11.997266 A 1.8752997 1.8382553 0 0 1 9.1464844 12.051563 A 1.8752997 1.8382553 0 0 1 9.1769531 12.106641 A 1.8752997 1.8382553 0 0 1 9.2052734 12.162891 A 1.8752997 1.8382553 0 0 1 9.2318359 12.220117 A 1.8752997 1.8382553 0 0 1 9.2564453 12.278125 A 1.8752997 1.8382553 0 0 1 9.2789063 12.336914 A 1.8752997 1.8382553 0 0 1 9.2992187 12.396289 A 1.8752997 1.8382553 0 0 1 9.3175781 12.456445 A 1.8752997 1.8382553 0 0 1 9.3337891 12.517188 A 1.8752997 1.8382553 0 0 1 9.3478516 12.578516 A 1.8752997 1.8382553 0 0 1 9.3597656 12.640039 A 1.8752997 1.8382553 0 0 1 9.3697266 12.702148 A 1.8752997 1.8382553 0 0 1 9.3773437 12.764453 A 1.8752997 1.8382553 0 0 1 9.3828125 12.826953 A 1.8752997 1.8382553 0 0 1 9.3859375 12.889648 A 1.8752997 1.8382553 0 0 1 9.3871094 12.952344 A 1.8752997 1.8382553 0 0 1 9.378125 13.132617 A 1.8752997 1.8382553 0 0 1 9.3511719 13.311133 A 1.8752997 1.8382553 0 0 1 9.3064453 13.486133 A 1.8752997 1.8382553 0 0 1 9.2443359 13.655859 A 1.8752997 1.8382553 0 0 1 9.165625 13.818945 A 1.8752997 1.8382553 0 0 1 9.0710938 13.973633 A 1.8752997 1.8382553 0 0 1 8.9615234 14.118555 A 1.8752997 1.8382553 0 0 1 8.8378906 14.252344 A 1.8752997 1.8382553 0 0 1 8.7015625 14.373438 A 1.8752997 1.8382553 0 0 1 8.5537109 14.480859 A 1.8752997 1.8382553 0 0 1 8.3958984 14.573633 A 1.8752997 1.8382553 0 0 1 8.2294922 14.650781 A 1.8752997 1.8382553 0 0 1 8.05625 14.711523 A 1.8752997 1.8382553 0 0 1 7.8777344 14.755273 A 1.8752997 1.8382553 0 0 1 7.6957031 14.781836 A 1.8752997 1.8382553 0 0 1 7.5117188 14.790625 A 1.8752997 1.8382553 0 0 1 7.3279297 14.781836 A 1.8752997 1.8382553 0 0 1 7.1458984 14.755273 A 1.8752997 1.8382553 0 0 1 6.9673828 14.711523 A 1.8752997 1.8382553 0 0 1 6.7941406 14.650781 A 1.8752997 1.8382553 0 0 1 6.6277344 14.573633 A 1.8752997 1.8382553 0 0 1 6.4699219 14.480859 A 1.8752997 1.8382553 0 0 1 6.3220703 14.373438 A 1.8752997 1.8382553 0 0 1 6.1857422 14.252344 A 1.8752997 1.8382553 0 0 1 6.0621094 14.118555 A 1.8752997 1.8382553 0 0 1 5.9525391 13.973633 A 1.8752997 1.8382553 0 0 1 5.8580078 13.818945 A 1.8752997 1.8382553 0 0 1 5.7792969 13.655859 A 1.8752997 1.8382553 0 0 1 5.7171875 13.486133 A 1.8752997 1.8382553 0 0 1 5.6724609 13.311133 A 1.8752997 1.8382553 0 0 1 5.6455078 13.132617 A 1.8752997 1.8382553 0 0 1 5.6365234 12.952344 A 1.8752997 1.8382553 0 0 1 5.6455078 12.772266 A 1.8752997 1.8382553 0 0 1 5.6724609 12.59375 A 1.8752997 1.8382553 0 0 1 5.7171875 12.41875 A 1.8752997 1.8382553 0 0 1 5.7792969 12.249023 A 1.8752997 1.8382553 0 0 1 5.8580078 12.085938 A 1.8752997 1.8382553 0 0 1 5.9525391 11.931055 A 1.8752997 1.8382553 0 0 1 6.0621094 11.786328 A 1.8752997 1.8382553 0 0 1 6.1857422 11.652539 A 1.8752997 1.8382553 0 0 1 6.3220703 11.531445 A 1.8752997 1.8382553 0 0 1 6.4699219 11.424023 A 1.8752997 1.8382553 0 0 1 6.6277344 11.33125 A 1.8752997 1.8382553 0 0 1 6.7941406 11.254102 A 1.8752997 1.8382553 0 0 1 6.9673828 11.193359 A 1.8752997 1.8382553 0 0 1 7.1458984 11.149414 A 1.8752997 1.8382553 0 0 1 7.3279297 11.123047 A 1.8752997 1.8382553 0 0 1 7.5117188 11.114258 z M 11.939258 11.202734 A 1.8752997 1.8382553 0 0 1 12.00332 11.203711 A 1.8752997 1.8382553 0 0 1 12.067188 11.207031 A 1.8752997 1.8382553 0 0 1 12.131055 11.212305 A 1.8752997 1.8382553 0 0 1 12.194531 11.219922 A 1.8752997 1.8382553 0 0 1 12.257812 11.229492 A 1.8752997 1.8382553 0 0 1 12.320703 11.241211 A 1.8752997 1.8382553 0 0 1 12.383203 11.254883 A 1.8752997 1.8382553 0 0 1 12.445117 11.270898 A 1.8752997 1.8382553 0 0 1 12.506445 11.288867 A 1.8752997 1.8382553 0 0 1 12.567188 11.308789 A 1.8752997 1.8382553 0 0 1 12.627148 11.330859 A 1.8752997 1.8382553 0 0 1 12.686328 11.354883 A 1.8752997 1.8382553 0 0 1 12.744531 11.380859 A 1.8752997 1.8382553 0 0 1 12.801953 11.408789 A 1.8752997 1.8382553 0 0 1 12.858398 11.438672 A 1.8752997 1.8382553 0 0 1 12.913672 11.470313 A 1.8752997 1.8382553 0 0 1 12.967773 11.503906 A 1.8752997 1.8382553 0 0 1 13.020703 11.539258 A 1.8752997 1.8382553 0 0 1 13.072266 11.576172 A 1.8752997 1.8382553 0 0 1 13.122656 11.615039 A 1.8752997 1.8382553 0 0 1 13.17168 11.655469 A 1.8752997 1.8382553 0 0 1 13.219141 11.697461 A 1.8752997 1.8382553 0 0 1 13.265234 11.741211 A 1.8752997 1.8382553 0 0 1 13.309766 11.786328 A 1.8752997 1.8382553 0 0 1 13.352734 11.832813 A 1.8752997 1.8382553 0 0 1 13.393945 11.880859 A 1.8752997 1.8382553 0 0 1 13.433398 11.930273 A 1.8752997 1.8382553 0 0 1 13.471289 11.980859 A 1.8752997 1.8382553 0 0 1 13.507227 12.032813 A 1.8752997 1.8382553 0 0 1 13.541602 12.085742 A 1.8752997 1.8382553 0 0 1 13.573828 12.140039 A 1.8752997 1.8382553 0 0 1 13.604297 12.195312 A 1.8752997 1.8382553 0 0 1 13.632812 12.251367 A 1.8752997 1.8382553 0 0 1 13.65918 12.308594 A 1.8752997 1.8382553 0 0 1 13.683789 12.366602 A 1.8752997 1.8382553 0 0 1 13.70625 12.425391 A 1.8752997 1.8382553 0 0 1 13.726562 12.484766 A 1.8752997 1.8382553 0 0 1 13.744922 12.544922 A 1.8752997 1.8382553 0 0 1 13.761133 12.605664 A 1.8752997 1.8382553 0 0 1 13.775391 12.666992 A 1.8752997 1.8382553 0 0 1 13.787305 12.728711 A 1.8752997 1.8382553 0 0 1 13.79707 12.790625 A 1.8752997 1.8382553 0 0 1 13.804688 12.85293 A 1.8752997 1.8382553 0 0 1 13.810156 12.91543 A 1.8752997 1.8382553 0 0 1 13.813477 12.978125 A 1.8752997 1.8382553 0 0 1 13.814453 13.041016 A 1.8752997 1.8382553 0 0 1 13.805469 13.221094 A 1.8752997 1.8382553 0 0 1 13.778516 13.399609 A 1.8752997 1.8382553 0 0 1 13.733789 13.574609 A 1.8752997 1.8382553 0 0 1 13.67168 13.744336 A 1.8752997 1.8382553 0 0 1 13.593164 13.907422 A 1.8752997 1.8382553 0 0 1 13.498438 14.062305 A 1.8752997 1.8382553 0 0 1 13.388867 14.207227 A 1.8752997 1.8382553 0 0 1 13.265234 14.34082 A 1.8752997 1.8382553 0 0 1 13.128906 14.461914 A 1.8752997 1.8382553 0 0 1 12.981055 14.569336 A 1.8752997 1.8382553 0 0 1 12.823242 14.662109 A 1.8752997 1.8382553 0 0 1 12.656836 14.739258 A 1.8752997 1.8382553 0 0 1 12.483594 14.8 A 1.8752997 1.8382553 0 0 1 12.305078 14.843945 A 1.8752997 1.8382553 0 0 1 12.123047 14.870313 A 1.8752997 1.8382553 0 0 1 11.939258 14.879297 A 1.8752997 1.8382553 0 0 1 11.755469 14.870313 A 1.8752997 1.8382553 0 0 1 11.573438 14.843945 A 1.8752997 1.8382553 0 0 1 11.394922 14.8 A 1.8752997 1.8382553 0 0 1 11.221484 14.739258 A 1.8752997 1.8382553 0 0 1 11.055273 14.662109 A 1.8752997 1.8382553 0 0 1 10.897266 14.569336 A 1.8752997 1.8382553 0 0 1 10.749609 14.461914 A 1.8752997 1.8382553 0 0 1 10.613086 14.34082 A 1.8752997 1.8382553 0 0 1 10.489648 14.207227 A 1.8752997 1.8382553 0 0 1 10.379883 14.062305 A 1.8752997 1.8382553 0 0 1 10.285352 13.907422 A 1.8752997 1.8382553 0 0 1 10.206641 13.744336 A 1.8752997 1.8382553 0 0 1 10.144727 13.574609 A 1.8752997 1.8382553 0 0 1 10.1 13.399609 A 1.8752997 1.8382553 0 0 1 10.072852 13.221094 A 1.8752997 1.8382553 0 0 1 10.063867 13.041016 A 1.8752997 1.8382553 0 0 1 10.072852 12.860742 A 1.8752997 1.8382553 0 0 1 10.1 12.682422 A 1.8752997 1.8382553 0 0 1 10.144727 12.507422 A 1.8752997 1.8382553 0 0 1 10.206641 12.3375 A 1.8752997 1.8382553 0 0 1 10.285352 12.174414 A 1.8752997 1.8382553 0 0 1 10.379883 12.019727 A 1.8752997 1.8382553 0 0 1 10.489648 11.874805 A 1.8752997 1.8382553 0 0 1 10.613086 11.741211 A 1.8752997 1.8382553 0 0 1 10.749609 11.619922 A 1.8752997 1.8382553 0 0 1 10.897266 11.5125 A 1.8752997 1.8382553 0 0 1 11.055273 11.419727 A 1.8752997 1.8382553 0 0 1 11.221484 11.342578 A 1.8752997 1.8382553 0 0 1 11.394922 11.281836 A 1.8752997 1.8382553 0 0 1 11.573438 11.238086 A 1.8752997 1.8382553 0 0 1 11.755469 11.211523 A 1.8752997 1.8382553 0 0 1 11.939258 11.202734 z M 16.404883 11.231445 A 1.8752997 1.8382553 0 0 1 16.46875 11.232617 A 1.8752997 1.8382553 0 0 1 16.532813 11.235742 A 1.8752997 1.8382553 0 0 1 16.59668 11.241211 A 1.8752997 1.8382553 0 0 1 16.660156 11.248633 A 1.8752997 1.8382553 0 0 1 16.723437 11.258203 A 1.8752997 1.8382553 0 0 1 16.786328 11.269922 A 1.8752997 1.8382553 0 0 1 16.848828 11.283789 A 1.8752997 1.8382553 0 0 1 16.910742 11.299609 A 1.8752997 1.8382553 0 0 1 16.97207 11.317578 A 1.8752997 1.8382553 0 0 1 17.032813 11.337695 A 1.8752997 1.8382553 0 0 1 17.092773 11.35957 A 1.8752997 1.8382553 0 0 1 17.151953 11.383594 A 1.8752997 1.8382553 0 0 1 17.210156 11.40957 A 1.8752997 1.8382553 0 0 1 17.267578 11.4375 A 1.8752997 1.8382553 0 0 1 17.323828 11.467383 A 1.8752997 1.8382553 0 0 1 17.379102 11.499023 A 1.8752997 1.8382553 0 0 1 17.433398 11.532617 A 1.8752997 1.8382553 0 0 1 17.486328 11.567969 A 1.8752997 1.8382553 0 0 1 17.537891 11.605078 A 1.8752997 1.8382553 0 0 1 17.588281 11.64375 A 1.8752997 1.8382553 0 0 1 17.637305 11.68418 A 1.8752997 1.8382553 0 0 1 17.684766 11.726367 A 1.8752997 1.8382553 0 0 1 17.730859 11.769922 A 1.8752997 1.8382553 0 0 1 17.775391 11.815039 A 1.8752997 1.8382553 0 0 1 17.818164 11.861719 A 1.8752997 1.8382553 0 0 1 17.85957 11.90957 A 1.8752997 1.8382553 0 0 1 17.899023 11.958984 A 1.8752997 1.8382553 0 0 1 17.936914 12.00957 A 1.8752997 1.8382553 0 0 1 17.972852 12.061523 A 1.8752997 1.8382553 0 0 1 18.007031 12.114648 A 1.8752997 1.8382553 0 0 1 18.039453 12.16875 A 1.8752997 1.8382553 0 0 1 18.069922 12.224023 A 1.8752997 1.8382553 0 0 1 18.098437 12.280273 A 1.8752997 1.8382553 0 0 1 18.124805 12.337305 A 1.8752997 1.8382553 0 0 1 18.149414 12.395313 A 1.8752997 1.8382553 0 0 1 18.171875 12.454102 A 1.8752997 1.8382553 0 0 1 18.192187 12.513672 A 1.8752997 1.8382553 0 0 1 18.210547 12.573828 A 1.8752997 1.8382553 0 0 1 18.226758 12.63457 A 1.8752997 1.8382553 0 0 1 18.24082 12.695703 A 1.8752997 1.8382553 0 0 1 18.25293 12.757422 A 1.8752997 1.8382553 0 0 1 18.262695 12.819336 A 1.8752997 1.8382553 0 0 1 18.270312 12.881836 A 1.8752997 1.8382553 0 0 1 18.275781 12.944336 A 1.8752997 1.8382553 0 0 1 18.279102 13.007031 A 1.8752997 1.8382553 0 0 1 18.280078 13.069727 A 1.8752997 1.8382553 0 0 1 18.271094 13.25 A 1.8752997 1.8382553 0 0 1 18.244141 13.42832 A 1.8752997 1.8382553 0 0 1 18.199414 13.60332 A 1.8752997 1.8382553 0 0 1 18.137305 13.773242 A 1.8752997 1.8382553 0 0 1 18.058594 13.936328 A 1.8752997 1.8382553 0 0 1 17.964063 14.091016 A 1.8752997 1.8382553 0 0 1 17.854492 14.235938 A 1.8752997 1.8382553 0 0 1 17.730859 14.369531 A 1.8752997 1.8382553 0 0 1 17.594531 14.49082 A 1.8752997 1.8382553 0 0 1 17.44668 14.598242 A 1.8752997 1.8382553 0 0 1 17.288867 14.691016 A 1.8752997 1.8382553 0 0 1 17.122461 14.767969 A 1.8752997 1.8382553 0 0 1 16.949219 14.828906 A 1.8752997 1.8382553 0 0 1 16.770703 14.872656 A 1.8752997 1.8382553 0 0 1 16.588672 14.899219 A 1.8752997 1.8382553 0 0 1 16.404883 14.908008 A 1.8752997 1.8382553 0 0 1 16.221094 14.899219 A 1.8752997 1.8382553 0 0 1 16.038867 14.872656 A 1.8752997 1.8382553 0 0 1 15.860352 14.828906 A 1.8752997 1.8382553 0 0 1 15.687109 14.767969 A 1.8752997 1.8382553 0 0 1 15.520898 14.691016 A 1.8752997 1.8382553 0 0 1 15.362891 14.598242 A 1.8752997 1.8382553 0 0 1 15.215039 14.49082 A 1.8752997 1.8382553 0 0 1 15.078711 14.369531 A 1.8752997 1.8382553 0 0 1 14.955273 14.235938 A 1.8752997 1.8382553 0 0 1 14.845508 14.091016 A 1.8752997 1.8382553 0 0 1 14.750977 13.936328 A 1.8752997 1.8382553 0 0 1 14.672266 13.773242 A 1.8752997 1.8382553 0 0 1 14.610352 13.60332 A 1.8752997 1.8382553 0 0 1 14.565625 13.42832 A 1.8752997 1.8382553 0 0 1 14.538477 13.25 A 1.8752997 1.8382553 0 0 1 14.529492 13.069727 A 1.8752997 1.8382553 0 0 1 14.538477 12.889648 A 1.8752997 1.8382553 0 0 1 14.565625 12.711133 A 1.8752997 1.8382553 0 0 1 14.610352 12.536133 A 1.8752997 1.8382553 0 0 1 14.672266 12.366211 A 1.8752997 1.8382553 0 0 1 14.750977 12.203125 A 1.8752997 1.8382553 0 0 1 14.845508 12.048438 A 1.8752997 1.8382553 0 0 1 14.955273 11.903516 A 1.8752997 1.8382553 0 0 1 15.078711 11.769922 A 1.8752997 1.8382553 0 0 1 15.215039 11.648828 A 1.8752997 1.8382553 0 0 1 15.362891 11.541211 A 1.8752997 1.8382553 0 0 1 15.520898 11.448633 A 1.8752997 1.8382553 0 0 1 15.687109 11.371484 A 1.8752997 1.8382553 0 0 1 15.860352 11.310547 A 1.8752997 1.8382553 0 0 1 16.038867 11.266797 A 1.8752997 1.8382553 0 0 1 16.221094 11.240234 A 1.8752997 1.8382553 0 0 1 16.404883 11.231445 z " /></svg>
